<svg  id="add-avatar" width="24" height="24" viewBox="0 0 16 16" fill="none" xmlns="http://www.w3.org/2000/svg">
<path d="M10.5 3.50001C10.5 3.3674 10.5527 3.24022 10.6465 3.14645C10.7402 3.05269 10.8674 3.00001 11 3.00001H12V2.00001C12 1.8674 12.0527 1.74022 12.1465 1.64645C12.2402 1.55269 12.3674 1.50001 12.5 1.50001C12.6326 1.50001 12.7598 1.55269 12.8536 1.64645C12.9473 1.74022 13 1.8674 13 2.00001V3.00001H14C14.1326 3.00001 14.2598 3.05269 14.3536 3.14645C14.4473 3.24022 14.5 3.3674 14.5 3.50001C14.5 3.63262 14.4473 3.75979 14.3536 3.85356C14.2598 3.94733 14.1326 4.00001 14 4.00001H13V5.00001C13 5.13262 12.9473 5.25979 12.8536 5.35356C12.7598 5.44733 12.6326 5.50001 12.5 5.50001C12.3674 5.50001 12.2402 5.44733 12.1465 5.35356C12.0527 5.25979 12 5.13262 12 5.00001V4.00001H11C10.8674 4.00001 10.7402 3.94733 10.6465 3.85356C10.5527 3.75979 10.5 3.63262 10.5 3.50001ZM14.41 6.91751C14.6384 8.27536 14.4294 9.67067 13.8132 10.902C13.1969 12.1333 12.2052 13.1369 10.9814 13.7679C9.75755 14.3989 8.36484 14.6246 7.00435 14.4125C5.64387 14.2003 4.38599 13.5613 3.41236 12.5877C2.43872 11.614 1.7997 10.3562 1.58756 8.99567C1.37543 7.63518 1.60114 6.24247 2.23213 5.01863C2.86312 3.79479 3.86672 2.80314 5.09804 2.18687C6.32935 1.57059 7.72467 1.36158 9.08252 1.59001C9.21231 1.61296 9.32779 1.68623 9.40383 1.79389C9.47988 1.90154 9.51034 2.03487 9.48859 2.16487C9.46684 2.29487 9.39464 2.41102 9.2877 2.48806C9.18075 2.5651 9.04771 2.5968 8.91752 2.57626C8.12885 2.44359 7.32074 2.48437 6.54944 2.69576C5.77814 2.90716 5.06216 3.28409 4.45134 3.80032C3.84052 4.31655 3.34953 4.95969 3.01254 5.68497C2.67555 6.41025 2.50065 7.20026 2.50002 8.00001C2.49883 9.34638 2.99367 10.646 3.89002 11.6506C4.44766 10.8426 5.23178 10.2174 6.14377 9.85376C5.65388 9.46791 5.29641 8.939 5.12106 8.34057C4.94571 7.74214 4.96121 7.10394 5.16538 6.51472C5.36956 5.92551 5.75228 5.41456 6.26031 5.05294C6.76833 4.69132 7.37643 4.49699 8.00002 4.49699C8.62361 4.49699 9.2317 4.69132 9.73973 5.05294C10.2478 5.41456 10.6305 5.92551 10.8346 6.51472C11.0388 7.10394 11.0543 7.74214 10.879 8.34057C10.7036 8.939 10.3462 9.46791 9.85627 9.85376C10.7683 10.2174 11.5524 10.8426 12.11 11.6506C13.0064 10.646 13.5012 9.34638 13.5 8.00001C13.5 7.69259 13.4745 7.3857 13.4238 7.08251C13.4123 7.01747 13.4138 6.95079 13.4282 6.88633C13.4426 6.82187 13.4696 6.76091 13.5077 6.70696C13.5458 6.65301 13.5943 6.60714 13.6502 6.57202C13.7061 6.53689 13.7685 6.51319 13.8336 6.50229C13.8988 6.49139 13.9654 6.49351 14.0298 6.50852C14.0941 6.52353 14.1548 6.55113 14.2084 6.58974C14.262 6.62835 14.3074 6.67719 14.342 6.73345C14.3766 6.78971 14.3997 6.85226 14.41 6.91751ZM8.00002 9.50001C8.39558 9.50001 8.78226 9.38271 9.11116 9.16295C9.44006 8.94318 9.6964 8.63083 9.84778 8.26537C9.99915 7.89992 10.0388 7.49779 9.96159 7.10983C9.88442 6.72186 9.69393 6.3655 9.41423 6.08579C9.13452 5.80609 8.77816 5.61561 8.3902 5.53844C8.00224 5.46127 7.6001 5.50087 7.23465 5.65225C6.8692 5.80362 6.55684 6.05997 6.33708 6.38887C6.11731 6.71777 6.00002 7.10444 6.00002 7.50001C6.00002 8.03044 6.21073 8.53915 6.5858 8.91422C6.96088 9.28929 7.46958 9.50001 8.00002 9.50001ZM8.00002 13.5C9.22087 13.5012 10.4071 13.0942 11.37 12.3438C11.0083 11.7781 10.51 11.3125 9.92107 10.99C9.33212 10.6676 8.67147 10.4985 8.00002 10.4985C7.32856 10.4985 6.66792 10.6676 6.07897 10.99C5.49002 11.3125 4.99173 11.7781 4.63002 12.3438C5.59295 13.0942 6.77917 13.5012 8.00002 13.5Z" fill="currentColor"/>
</svg>
