<svg id="close-modal" width="16" height="16" viewBox="0 0 24 24" fill="none" xmlns="http://www.w3.org/2000/svg">
  <path d="M11.6464 12.7068L5.42708 18.9271C5.42707 18.9271 5.42706 18.9271 5.42705 18.9271C5.38009 18.974 5.31641 19.0004 5.25001 19.0004C5.18359 19.0004 5.1199 18.974 5.07293 18.9271C5.02597 18.8801 4.99959 18.8164 4.99959 18.75C4.99959 18.6836 5.02596 18.6199 5.07291 18.5729C5.07292 18.5729 5.07292 18.5729 5.07293 18.5729L11.2932 12.3536L11.6469 12L11.2932 11.6464L5.07293 5.42706C5.07292 5.42705 5.07292 5.42704 5.07291 5.42703C5.02596 5.38008 4.99959 5.31639 4.99959 5.24999C4.99959 5.18357 5.02597 5.11988 5.07293 5.07292C5.1199 5.02596 5.18359 4.99957 5.25001 4.99957C5.31641 4.99957 5.38009 5.02595 5.42705 5.07289C5.42706 5.0729 5.42707 5.07291 5.42708 5.07292L11.6464 11.2932L12 11.6468L12.3536 11.2932L18.5729 5.07292C18.5729 5.07291 18.573 5.0729 18.573 5.07289C18.6199 5.02595 18.6836 4.99957 18.75 4.99957C18.8164 4.99957 18.8801 5.02596 18.9271 5.07292C18.974 5.11988 19.0004 5.18357 19.0004 5.24999C19.0004 5.31639 18.974 5.38008 18.9271 5.42703C18.9271 5.42704 18.9271 5.42705 18.9271 5.42706L12.7068 11.6464L12.3532 12L12.7068 12.3536L18.9271 18.5729C18.9271 18.5729 18.9271 18.5729 18.9271 18.5729C18.9503 18.5962 18.9688 18.6238 18.9814 18.6542C18.9939 18.6845 19.0004 18.7171 19.0004 18.75C19.0004 18.7829 18.9939 18.8154 18.9814 18.8458C18.9688 18.8762 18.9503 18.9038 18.9271 18.9271C18.9038 18.9503 18.8762 18.9688 18.8458 18.9813C18.8155 18.9939 18.7829 19.0004 18.75 19.0004C18.7171 19.0004 18.6846 18.9939 18.6542 18.9813C18.6238 18.9688 18.5962 18.9503 18.573 18.9271C18.573 18.9271 18.5729 18.9271 18.5729 18.9271L12.3536 12.7068L12 12.3531L11.6464 12.7068Z" fill="currentColor" stroke="currentColor"/>
</svg>
