<svg id="move" width="16" height="16" viewBox="0 0 16 16" fill="none" xmlns="http://www.w3.org/2000/svg">
<path d="M5.64622 3.85372C5.59973 3.80728 5.56285 3.75214 5.53769 3.69144C5.51252 3.63074 5.49957 3.56567 5.49957 3.49997C5.49957 3.43426 5.51252 3.36919 5.53769 3.3085C5.56285 3.2478 5.59973 3.19265 5.64622 3.14622L7.64622 1.14622C7.69265 1.09973 7.7478 1.06285 7.8085 1.03769C7.86919 1.01252 7.93426 0.999573 7.99997 0.999573C8.06567 0.999573 8.13074 1.01252 8.19144 1.03769C8.25214 1.06285 8.30728 1.09973 8.35372 1.14622L10.3537 3.14622C10.4475 3.24004 10.5002 3.36728 10.5002 3.49997C10.5002 3.63265 10.4475 3.7599 10.3537 3.85372C10.2599 3.94754 10.1326 4.00024 9.99997 4.00024C9.86728 4.00024 9.74004 3.94754 9.64622 3.85372L8.49997 2.70684V5.99997C8.49997 6.13257 8.44729 6.25975 8.35352 6.35352C8.25975 6.44729 8.13257 6.49997 7.99997 6.49997C7.86736 6.49997 7.74018 6.44729 7.64641 6.35352C7.55264 6.25975 7.49997 6.13257 7.49997 5.99997V2.70684L6.35372 3.85372C6.30728 3.9002 6.25214 3.93708 6.19144 3.96225C6.13074 3.98741 6.06567 4.00036 5.99997 4.00036C5.93426 4.00036 5.86919 3.98741 5.8085 3.96225C5.7478 3.93708 5.69265 3.9002 5.64622 3.85372ZM9.64622 12.1462L8.49997 13.2931V9.99997C8.49997 9.86736 8.44729 9.74018 8.35352 9.64641C8.25975 9.55264 8.13257 9.49997 7.99997 9.49997C7.86736 9.49997 7.74018 9.55264 7.64641 9.64641C7.55264 9.74018 7.49997 9.86736 7.49997 9.99997V13.2931L6.35372 12.1462C6.2599 12.0524 6.13265 11.9997 5.99997 11.9997C5.86728 11.9997 5.74004 12.0524 5.64622 12.1462C5.5524 12.24 5.49969 12.3673 5.49969 12.5C5.49969 12.6326 5.5524 12.7599 5.64622 12.8537L7.64622 14.8537C7.69265 14.9002 7.7478 14.9371 7.8085 14.9622C7.86919 14.9874 7.93426 15.0004 7.99997 15.0004C8.06567 15.0004 8.13074 14.9874 8.19144 14.9622C8.25214 14.9371 8.30728 14.9002 8.35372 14.8537L10.3537 12.8537C10.4475 12.7599 10.5002 12.6326 10.5002 12.5C10.5002 12.3673 10.4475 12.24 10.3537 12.1462C10.2599 12.0524 10.1326 11.9997 9.99997 11.9997C9.86728 11.9997 9.74004 12.0524 9.64622 12.1462ZM14.8537 7.64622L12.8537 5.64622C12.7599 5.5524 12.6326 5.49969 12.5 5.49969C12.3673 5.49969 12.24 5.5524 12.1462 5.64622C12.0524 5.74004 11.9997 5.86728 11.9997 5.99997C11.9997 6.13265 12.0524 6.2599 12.1462 6.35372L13.2931 7.49997H9.99997C9.86736 7.49997 9.74018 7.55264 9.64641 7.64641C9.55264 7.74018 9.49997 7.86736 9.49997 7.99997C9.49997 8.13257 9.55264 8.25975 9.64641 8.35352C9.74018 8.44729 9.86736 8.49997 9.99997 8.49997H13.2931L12.1462 9.64622C12.0524 9.74004 11.9997 9.86728 11.9997 9.99997C11.9997 10.1326 12.0524 10.2599 12.1462 10.3537C12.24 10.4475 12.3673 10.5002 12.5 10.5002C12.6326 10.5002 12.7599 10.4475 12.8537 10.3537L14.8537 8.35372C14.9002 8.30728 14.9371 8.25214 14.9622 8.19144C14.9874 8.13074 15.0004 8.06567 15.0004 7.99997C15.0004 7.93426 14.9874 7.86919 14.9622 7.8085C14.9371 7.7478 14.9002 7.69265 14.8537 7.64622ZM2.70684 8.49997H5.99997C6.13257 8.49997 6.25975 8.44729 6.35352 8.35352C6.44729 8.25975 6.49997 8.13257 6.49997 7.99997C6.49997 7.86736 6.44729 7.74018 6.35352 7.64641C6.25975 7.55264 6.13257 7.49997 5.99997 7.49997H2.70684L3.85372 6.35372C3.94754 6.2599 4.00024 6.13265 4.00024 5.99997C4.00024 5.86728 3.94754 5.74004 3.85372 5.64622C3.7599 5.5524 3.63265 5.49969 3.49997 5.49969C3.36728 5.49969 3.24004 5.5524 3.14622 5.64622L1.14622 7.64622C1.09973 7.69265 1.06285 7.7478 1.03769 7.8085C1.01252 7.86919 0.999573 7.93426 0.999573 7.99997C0.999573 8.06567 1.01252 8.13074 1.03769 8.19144C1.06285 8.25214 1.09973 8.30728 1.14622 8.35372L3.14622 10.3537C3.24004 10.4475 3.36728 10.5002 3.49997 10.5002C3.63265 10.5002 3.7599 10.4475 3.85372 10.3537C3.94754 10.2599 4.00024 10.1326 4.00024 9.99997C4.00024 9.86728 3.94754 9.74004 3.85372 9.64622L2.70684 8.49997Z" fill="currentColor"/>
</svg>
