<svg id="stars" width="16" height="16" viewBox="0 0 24 24" fill="none" xmlns="http://www.w3.org/2000/svg">
    <g id="mage:stars-b">
        <path id="Vector"
            d="M17.142 3.51601L17.5879 4.84501C17.7541 5.34983 18.0364 5.80864 18.412 6.18463C18.7876 6.56062 19.2461 6.84331 19.7507 7.01001L21.0956 7.45601C21.141 7.47073 21.1806 7.49947 21.2087 7.53809C21.2368 7.57672 21.252 7.62325 21.252 7.67101C21.252 7.71877 21.2368 7.7653 21.2087 7.80393C21.1806 7.84256 21.141 7.87129 21.0956 7.88601L19.7507 8.33301C19.2507 8.49957 18.7964 8.78044 18.4239 9.15332C18.0514 9.52619 17.771 9.98079 17.6049 10.481L17.159 11.826C17.1442 11.8714 17.1155 11.9111 17.0769 11.9391C17.0383 11.9672 16.9917 11.9824 16.944 11.9824C16.8962 11.9824 16.8497 11.9672 16.8111 11.9391C16.7724 11.9111 16.7437 11.8714 16.729 11.826L16.267 10.498C16.1003 9.99817 15.8196 9.54393 15.4472 9.17115C15.0748 8.79838 14.6209 8.51727 14.1212 8.35001L12.7763 7.90301C12.7309 7.88829 12.6913 7.85956 12.6632 7.82093C12.6351 7.7823 12.62 7.73577 12.62 7.68801C12.62 7.64025 12.6351 7.59372 12.6632 7.55509C12.6913 7.51647 12.7309 7.48773 12.7763 7.47301L14.1042 7.01001C14.6092 6.84402 15.0681 6.56157 15.4438 6.18548C15.8195 5.80939 16.1015 5.35021 16.267 4.84501L16.713 3.49901C16.7294 3.45407 16.7597 3.41549 16.7994 3.38885C16.8392 3.36221 16.8864 3.34887 16.9342 3.35076C16.982 3.35265 17.028 3.36967 17.0655 3.39937C17.103 3.42907 17.1301 3.46991 17.143 3.51601M9.08165 8.79701L9.7056 10.657C9.93781 11.364 10.3329 12.0066 10.859 12.5329C11.3851 13.0592 12.0274 13.4545 12.7343 13.687L14.6162 14.313C14.6796 14.3336 14.7349 14.3738 14.7741 14.4278C14.8133 14.4818 14.8344 14.5468 14.8344 14.6135C14.8344 14.6802 14.8133 14.7452 14.7741 14.7992C14.7349 14.8532 14.6796 14.8934 14.6162 14.914L12.7343 15.54C12.034 15.7727 11.3976 16.1657 10.876 16.6877C10.3543 17.2098 9.96178 17.8464 9.7296 18.547L9.10465 20.43C9.08328 20.4926 9.04287 20.5469 8.98908 20.5854C8.93529 20.6239 8.87081 20.6446 8.80468 20.6446C8.73854 20.6446 8.67406 20.6239 8.62027 20.5854C8.56648 20.5469 8.52607 20.4926 8.5047 20.43L7.85576 18.57C7.62288 17.8698 7.23009 17.2335 6.70853 16.7116C6.18697 16.1896 5.55099 15.7964 4.85102 15.563L2.97018 14.938C2.90675 14.9174 2.85147 14.8772 2.81227 14.8232C2.77307 14.7692 2.75195 14.7042 2.75195 14.6375C2.75195 14.5708 2.77307 14.5058 2.81227 14.4518C2.85147 14.3978 2.90675 14.3576 2.97018 14.337L4.82802 13.687C5.53511 13.4551 6.17766 13.06 6.70367 12.5336C7.22967 12.0072 7.62435 11.3643 7.85576 10.657L8.48071 8.77301C8.50446 8.71115 8.547 8.65828 8.60235 8.62185C8.6577 8.58541 8.72307 8.56725 8.78928 8.56989C8.85549 8.57254 8.91921 8.59588 8.97147 8.63661C9.02373 8.67735 9.06292 8.73345 9.08165 8.79701Z"
            stroke="currentColor" stroke-width="1.5" stroke-linecap="round" stroke-linejoin="round" />
    </g>
</svg>