<svg id="bag" width="24" height="24" xmlns="http://www.w3.org/2000/svg" viewBox="0 0 24 24" fill="none">
    <path
        d="M8 8H5C4.46957 8 3.96086 8.21071 3.58579 8.58579C3.21071 8.96086 3 9.46957 3 10V13M8 8H16M8 8V6C8 5.46957 8.21071 4.96086 8.58579 4.58579C8.96086 4.21071 9.46957 4 10 4H14C14.5304 4 15.0391 4.21071 15.4142 4.58579C15.7893 4.96086 16 5.46957 16 6V8M3 13V18.0858C3 18.6162 3.21071 19.1249 3.58579 19.5C3.96086 19.8751 4.46957 20.0858 5 20.0858H19C19.5304 20.0858 20.0391 19.8751 20.4142 19.5C20.7893 19.1249 21 18.6162 21 18.0858V13M3 13C3 13 7 15 12 15C17 15 21 13 21 13M16 8H19C19.5304 8 20.0391 8.21071 20.4142 8.58579C20.7893 8.96086 21 9.46957 21 10V13M12 11H12.01"
        stroke="currentColor" stroke-width="1.5" stroke-linecap="round" stroke-linejoin="round" />
</svg>