<svg id="camunda" width="24" height="24" viewBox="0 0 48 48" fill="none" xmlns="http://www.w3.org/2000/svg">
    <g id="Camunda icon">
        <path id="Vector"
            d="M10.2677 5C8.87093 5 7.5313 5.55478 6.54345 6.54233C5.5556 7.52988 5.00042 8.86935 5 10.2662L5 37.7338C5.00042 39.1307 5.5556 40.4701 6.54345 41.4577C7.5313 42.4452 8.87093 43 10.2677 43H37.7338C39.1305 43 40.47 42.4452 41.4576 41.4576C42.4452 40.47 43 39.1305 43 37.7338V10.2662C43 8.86949 42.4452 7.53002 41.4576 6.54242C40.47 5.55483 39.1305 5 37.7338 5H10.2677ZM24.0222 10.2361C26.9909 10.2361 28.5188 11.9857 28.5188 15.0637V16.9241H25.6625V14.8642C25.6625 13.4914 25.0418 12.9594 24.0887 12.9594C23.1149 12.9373 22.5164 13.4693 22.5164 14.842V25.2287C22.5164 26.6014 23.1371 27.0891 24.0887 27.0891C25.064 27.0891 25.6625 26.6014 25.6625 25.2287V22.4832H28.5188V25.0292C28.4967 28.1087 26.9688 29.8568 24 29.8568C21.0312 29.8568 19.5049 28.085 19.5049 25.0513V15.0637C19.5271 11.9857 21.055 10.2361 24.0222 10.2361ZM19.5049 32.6703H28.5188V37.7639H19.5049V32.6703Z"
            fill="currentColor" />
    </g>
</svg>