<svg id="close" width="24" height="24" viewBox="0 0 24 24" fill="none" xmlns="http://www.w3.org/2000/svg">
    <g id="Icons_24px">
        <path id="Vector"
            d="M11.6463 12.7068L5.427 18.9271C5.42699 18.9271 5.42698 18.9271 5.42697 18.9271C5.38001 18.9741 5.31633 19.0005 5.24993 19.0005C5.18351 19.0005 5.11982 18.9741 5.07286 18.9271C5.02589 18.8802 4.99951 18.8165 4.99951 18.7501C4.99951 18.6837 5.02588 18.62 5.07283 18.573C5.07284 18.573 5.07285 18.573 5.07286 18.573L11.2931 12.3536L11.6468 12.0001L11.2931 11.6465L5.07286 5.42712C5.07285 5.42711 5.07284 5.4271 5.07283 5.4271C5.02588 5.38014 4.99951 5.31645 4.99951 5.25005C4.99951 5.18364 5.02589 5.11994 5.07286 5.07298C5.11982 5.02602 5.18351 4.99963 5.24993 4.99963C5.31633 4.99963 5.38001 5.02601 5.42697 5.07295C5.42698 5.07296 5.42699 5.07297 5.427 5.07298L11.6463 11.2933L11.9999 11.6469L12.3535 11.2933L18.5729 5.07298C18.5729 5.07297 18.5729 5.07296 18.5729 5.07295C18.6198 5.02601 18.6835 4.99963 18.7499 4.99963C18.8163 4.99963 18.88 5.02602 18.927 5.07298C18.974 5.11994 19.0003 5.18364 19.0003 5.25005C19.0003 5.31645 18.974 5.38014 18.927 5.4271C18.927 5.4271 18.927 5.42711 18.927 5.42712L12.7067 11.6465L12.3531 12.0001L12.7067 12.3536L18.927 18.573C18.927 18.573 18.927 18.573 18.927 18.573C18.9503 18.5962 18.9687 18.6238 18.9813 18.6542C18.9939 18.6846 19.0003 18.7172 19.0003 18.7501C19.0003 18.7829 18.9939 18.8155 18.9813 18.8459C18.9687 18.8763 18.9503 18.9039 18.927 18.9271C18.9038 18.9504 18.8761 18.9688 18.8458 18.9814C18.8154 18.994 18.7828 19.0005 18.7499 19.0005C18.717 19.0005 18.6845 18.994 18.6541 18.9814C18.6237 18.9688 18.5961 18.9504 18.5729 18.9271C18.5729 18.9271 18.5729 18.9271 18.5729 18.9271L12.3535 12.7068L11.9999 12.3532L11.6463 12.7068Z"
          stroke="currentColor" />
    </g>
</svg>