<svg width="24" height="24" viewBox="0 0 24 24" fill="none" xmlns="http://www.w3.org/2000/svg">
<path d="M16.0603 15L20.7544 19.6931C20.8241 19.7628 20.8793 19.8455 20.917 19.9366C20.9548 20.0276 20.9742 20.1252 20.9742 20.2238C20.9742 20.3223 20.9548 20.4199 20.917 20.5109C20.8793 20.602 20.8241 20.6847 20.7544 20.7544C20.6847 20.8241 20.602 20.8793 20.5109 20.917C20.4199 20.9548 20.3223 20.9742 20.2238 20.9742C20.1252 20.9742 20.0276 20.9548 19.9366 20.917C19.8455 20.8793 19.7628 20.8241 19.6931 20.7544L15 16.0603L16.0603 15Z" fill="currentColor"/>
<path d="M10.5 3C9.01664 3 7.56659 3.43987 6.33323 4.26398C5.09986 5.08809 4.13856 6.25943 3.57091 7.62987C3.00325 9.00032 2.85472 10.5083 3.14411 11.9632C3.4335 13.418 4.14781 14.7544 5.1967 15.8033C6.2456 16.8522 7.58197 17.5665 9.03683 17.8559C10.4917 18.1453 11.9997 17.9967 13.3701 17.4291C14.7406 16.8614 15.9119 15.9001 16.736 14.6668C17.5601 13.4334 18 11.9834 18 10.5C17.9977 8.51158 17.2068 6.60525 15.8008 5.19923C14.3947 3.7932 12.4884 3.00229 10.5 3ZM16.8462 10.5C16.8467 11.0853 16.7658 11.6678 16.606 12.2308H13.8288C14.0058 11.0837 14.0058 9.91629 13.8288 8.76923H16.606C16.7658 9.33225 16.8467 9.91474 16.8462 10.5ZM8.625 13.3846H12.375C12.0056 14.5951 11.3642 15.7052 10.5 16.6298C9.63611 15.7049 8.99482 14.595 8.625 13.3846ZM8.34375 12.2308C8.14568 11.0854 8.14568 9.91458 8.34375 8.76923H12.662C12.8601 9.91458 12.8601 11.0854 12.662 12.2308H8.34375ZM4.15385 10.5C4.15335 9.91474 4.23417 9.33225 4.39399 8.76923H7.17116C6.99423 9.91629 6.99423 11.0837 7.17116 12.2308H4.39399C4.23417 11.6678 4.15335 11.0853 4.15385 10.5ZM12.375 7.61538H8.625C8.99444 6.40486 9.63579 5.29484 10.5 4.37019C11.3639 5.29509 12.0052 6.40503 12.375 7.61538ZM16.1488 7.61538H13.58C13.2563 6.42758 12.7106 5.31178 11.9719 4.32692C12.8645 4.54134 13.7001 4.94623 14.4216 5.51384C15.143 6.08144 15.7332 6.79834 16.1517 7.61538H16.1488ZM9.02813 4.32692C8.28938 5.31178 7.74371 6.42758 7.41995 7.61538H4.84832C5.26679 6.79834 5.85697 6.08144 6.57843 5.51384C7.29989 4.94623 8.13555 4.54134 9.02813 4.32692ZM4.84832 13.3846H7.41995C7.74371 14.5724 8.28938 15.6882 9.02813 16.6731C8.13555 16.4587 7.29989 16.0538 6.57843 15.4862C5.85697 14.9186 5.26679 14.2017 4.84832 13.3846ZM11.9719 16.6731C12.7106 15.6882 13.2563 14.5724 13.58 13.3846H16.1517C15.7332 14.2017 15.143 14.9186 14.4216 15.4862C13.7001 16.0538 12.8645 16.4587 11.9719 16.6731Z" fill="currentColor"/>
</svg>
