<svg id="looker" width="24" height="24" viewBox="0 0 24 24" fill="none" xmlns="http://www.w3.org/2000/svg">
    <g id="Icons_24px">
        <path id="Vector"
            d="M12.004 2C11.6951 2.00014 11.392 2.08424 11.1272 2.24331C10.8624 2.40238 10.6459 2.63044 10.5007 2.90309C10.3555 3.17575 10.2872 3.48273 10.303 3.79122C10.3188 4.09971 10.4182 4.39809 10.5906 4.65446L11.3183 3.92767C11.2943 3.85518 11.2822 3.77928 11.2824 3.70292C11.2824 3.30608 11.6041 2.9844 12.0009 2.9844C12.3977 2.9844 12.7194 3.30608 12.7194 3.70288C12.7194 4.09967 12.3977 4.4214 12.0009 4.4214C11.9249 4.42159 11.8493 4.40946 11.7771 4.38552L11.0504 5.11221C11.2709 5.26179 11.5235 5.35752 11.7878 5.39169C12.0521 5.42586 12.3208 5.39753 12.5721 5.30896C12.8235 5.2204 13.0505 5.07408 13.235 4.88177C13.4195 4.68946 13.5563 4.45654 13.6343 4.20173C13.7124 3.94693 13.7296 3.67736 13.6845 3.41471C13.6394 3.15205 13.5333 2.90365 13.3747 2.68948C13.2161 2.47531 13.0095 2.30136 12.7714 2.18161C12.5333 2.06185 12.2704 1.99965 12.004 2Z"
            fill="#34A853" />
        <path id="Vector_2"
            d="M11.3235 6.96329C11.3246 6.38805 11.1383 5.82809 10.7928 5.36816L9.84849 6.31153C10.1438 6.85167 10.0375 7.52308 9.58984 7.94566L10.1031 9.19994C10.4773 8.95892 10.7851 8.6279 10.9983 8.23717C11.2115 7.84643 11.3233 7.40841 11.3235 6.96329Z"
            fill="#FBBC04" />
        <path id="Vector_3"
            d="M8.68501 8.31729H8.66036C8.44921 8.3173 8.24098 8.26796 8.05229 8.17321C7.86359 8.07846 7.69965 7.94092 7.57355 7.77157C7.44744 7.60221 7.36266 7.40573 7.32597 7.19779C7.28928 6.98986 7.3017 6.77623 7.36223 6.57394C7.42275 6.37165 7.52972 6.18631 7.67459 6.0327C7.81946 5.87909 7.99823 5.76147 8.19663 5.68921C8.39503 5.61696 8.60757 5.59207 8.8173 5.61653C9.02702 5.641 9.22813 5.71414 9.40457 5.83012L10.3397 4.89502C9.4304 4.15794 8.14632 4.10109 7.17543 4.75503C6.20454 5.40896 5.77459 6.62018 6.11592 7.73985C6.45728 8.85956 7.48984 9.62497 8.66036 9.62611C8.84098 9.62618 9.02116 9.60829 9.19824 9.57271L8.68501 8.31729Z"
            fill="#EA4335" />
        <path id="Vector_4"
            d="M12.0384 9.40143C11.4474 9.40084 10.8594 9.48695 10.2934 9.65701L11.0417 11.4851C11.3674 11.4044 11.7018 11.3638 12.0373 11.364C13.9818 11.3646 15.6551 12.7386 16.034 14.6458C16.413 16.553 15.392 18.4623 13.5954 19.2061C11.7988 19.9499 9.72695 19.3212 8.6468 17.7043C7.56665 16.0874 7.77898 13.9327 9.15399 12.5578C9.4409 12.2718 9.76845 12.0296 10.1261 11.8393L9.38601 10.0163C6.62735 11.3673 5.32122 14.573 6.3501 17.4673C7.37906 20.3616 10.4156 22.0234 13.408 21.3299C16.4004 20.6364 18.3965 17.8083 18.0474 14.7564C17.6983 11.7046 15.1152 9.4003 12.0435 9.40039L12.0384 9.40143Z"
            fill="#4285F4" />
    </g>
</svg>