<svg id="pin" width="24" height="24" viewBox="0 0 16 16" fill="none" xmlns="http://www.w3.org/2000/svg">
<path d="M10.7427 1.03536L14.9647 5.25736C15.102 5.39454 15.2028 5.56379 15.2582 5.74979C15.3136 5.93579 15.3217 6.13267 15.2817 6.32258C15.2418 6.5125 15.1552 6.68946 15.0296 6.83743C14.904 6.98541 14.7436 7.09972 14.5627 7.17003L13.476 7.59203C12.9328 7.80344 12.4459 8.1376 12.0533 8.56839C11.6606 8.99919 11.3729 9.51495 11.2127 10.0754L10.4587 12.7147C10.4029 12.91 10.2971 13.0874 10.1516 13.2293C10.0062 13.3712 9.8263 13.4727 9.62965 13.5236C9.43299 13.5746 9.22643 13.5734 9.0304 13.52C8.83438 13.4666 8.65569 13.363 8.51201 13.2194L6.00001 10.7074L2.27001 14.4367C2.22361 14.4831 2.16853 14.5199 2.1079 14.545C2.04728 14.5701 1.9823 14.5831 1.91668 14.5831C1.85106 14.5831 1.78608 14.5701 1.72546 14.545C1.66483 14.5199 1.60975 14.4831 1.56335 14.4367C1.51695 14.3903 1.48014 14.3352 1.45503 14.2746C1.42992 14.214 1.41699 14.149 1.41699 14.0834C1.41699 14.0177 1.42992 13.9528 1.45503 13.8921C1.48014 13.8315 1.51695 13.7764 1.56335 13.73L5.29268 10L2.78068 7.48803C2.63704 7.34436 2.53341 7.16567 2.48005 6.96964C2.42668 6.77362 2.42542 6.56706 2.47641 6.3704C2.52739 6.17374 2.62884 5.99381 2.77073 5.8484C2.91261 5.70299 3.09 5.59716 3.28535 5.54136L5.92468 4.78736C6.48509 4.62711 7.00085 4.33942 7.43165 3.94679C7.86245 3.55416 8.19661 3.06722 8.40802 2.52403L8.83001 1.43736C8.90032 1.25648 9.01464 1.096 9.16261 0.970438C9.31059 0.844881 9.48755 0.758221 9.67746 0.718305C9.86738 0.678388 10.0643 0.686478 10.2503 0.741841C10.4363 0.797203 10.6055 0.89809 10.7427 1.03536ZM3.48801 6.7807L9.21935 12.512C9.23987 12.5325 9.26538 12.5473 9.29337 12.5549C9.32135 12.5625 9.35084 12.5627 9.37892 12.5555C9.40699 12.5482 9.43269 12.5337 9.45346 12.5135C9.47423 12.4932 9.48936 12.4679 9.49735 12.44L10.2513 9.8007C10.4539 9.09197 10.8177 8.4397 11.3142 7.89487C11.8107 7.35004 12.4264 6.92741 13.1133 6.66003L14.2 6.23736C14.2257 6.22727 14.2486 6.21094 14.2664 6.18985C14.2842 6.16875 14.2966 6.14354 14.3023 6.1165C14.3079 6.08946 14.3068 6.06143 14.299 6.03493C14.2911 6.00843 14.2768 5.98429 14.2573 5.9647L10.0353 1.7427C10.0158 1.72321 9.99162 1.70891 9.96512 1.70107C9.93862 1.69323 9.91059 1.6921 9.88354 1.69779C9.8565 1.70348 9.8313 1.7158 9.8102 1.73364C9.7891 1.75149 9.77277 1.7743 9.76268 1.80003L9.34001 2.8867C9.07263 3.57361 8.65001 4.18937 8.10518 4.68586C7.56035 5.18235 6.90808 5.5461 6.19935 5.7487L3.56001 6.5027C3.53213 6.51069 3.50682 6.52582 3.48658 6.54659C3.46633 6.56736 3.45186 6.59305 3.44459 6.62113C3.43732 6.6492 3.4375 6.67869 3.44511 6.70668C3.45273 6.73466 3.46752 6.76018 3.48801 6.7807Z" fill="currentColor"/>
</svg>
