<svg width="24" height="24" viewBox="0 0 24 24" fill="none" xmlns="http://www.w3.org/2000/svg">
<path d="M21 4.5V19.5C21 19.8978 20.842 20.2794 20.5607 20.5607C20.2794 20.842 19.8978 21 19.5 21H12.75C12.5511 21 12.3603 20.921 12.2197 20.7803C12.079 20.6397 12 20.4489 12 20.25C12 20.0511 12.079 19.8603 12.2197 19.7197C12.3603 19.579 12.5511 19.5 12.75 19.5H19.5V4.5H4.5V11.25C4.5 11.4489 4.42098 11.6397 4.28033 11.7803C4.13968 11.921 3.94891 12 3.75 12C3.55109 12 3.36032 11.921 3.21967 11.7803C3.07902 11.6397 3 11.4489 3 11.25V4.5C3 4.10218 3.15804 3.72064 3.43934 3.43934C3.72064 3.15804 4.10218 3 4.5 3H19.5C19.8978 3 20.2794 3.15804 20.5607 3.43934C20.842 3.72064 21 4.10218 21 4.5Z" fill="currentColor"/>
<path d="M15.9945 10.0791C16.0938 10.1229 16.1841 10.1872 16.26 10.2681C16.3361 10.349 16.3965 10.445 16.4376 10.5507C16.4788 10.6565 16.5 10.7698 16.5 10.8842C16.5 10.9986 16.4788 11.112 16.4376 11.2177C16.3965 11.3234 16.3361 11.4194 16.26 11.5003L8.94297 19.2449C8.86698 19.3258 8.77674 19.39 8.67742 19.4339C8.57809 19.4777 8.47163 19.5002 8.3641 19.5002C8.25658 19.5002 8.15011 19.4777 8.05079 19.4339C7.95146 19.39 7.86123 19.3258 7.78524 19.2449L4.23977 16.0514C4.16376 15.9705 4.10346 15.8744 4.06232 15.7687C4.02117 15.663 4 15.5497 4 15.4353C4 15.3209 4.02117 15.2076 4.06232 15.1018C4.10346 14.9961 4.16376 14.9001 4.23977 14.8192C4.31579 14.7383 4.40604 14.6741 4.50536 14.6303C4.60468 14.5865 4.71113 14.564 4.81864 14.564C4.92614 14.564 5.03259 14.5865 5.13192 14.6303C5.23124 14.6741 5.32148 14.7383 5.3975 14.8192L8.3641 17.3977L15.1023 10.2681C15.1783 10.1872 15.2685 10.1229 15.3679 10.0791C15.4672 10.0353 15.5737 10.0127 15.6812 10.0127C15.7887 10.0127 15.8952 10.0353 15.9945 10.0791Z" fill="currentColor"/>
</svg>
